<?xml version="1.0" encoding="UTF-8" standalone="no"?>
<!-- Created with Inkscape (http://www.inkscape.org/) -->

<svg
   xmlns:dc="http://purl.org/dc/elements/1.1/"
   xmlns:cc="http://creativecommons.org/ns#"
   xmlns:rdf="http://www.w3.org/1999/02/22-rdf-syntax-ns#"
   xmlns:svg="http://www.w3.org/2000/svg"
   xmlns="http://www.w3.org/2000/svg"
   xmlns:sodipodi="http://sodipodi.sourceforge.net/DTD/sodipodi-0.dtd"
   xmlns:inkscape="http://www.inkscape.org/namespaces/inkscape"
   width="100"
   height="100"
   viewBox="0 0 26.458333 26.458333"
   version="1.1"
   id="svg8"
   inkscape:version="0.92.3 (2405546, 2018-03-11)"
   sodipodi:docname="image.svg">
  <defs
     id="defs2" />
  <sodipodi:namedview
     id="base"
     pagecolor="#ffffff"
     bordercolor="#666666"
     borderopacity="1.0"
     inkscape:pageopacity="0.0"
     inkscape:pageshadow="2"
     inkscape:zoom="2.8"
     inkscape:cx="-11.939498"
     inkscape:cy="77.952104"
     inkscape:document-units="mm"
     inkscape:current-layer="layer1"
     showgrid="true"
     units="px"
     inkscape:window-width="1920"
     inkscape:window-height="1017"
     inkscape:window-x="-8"
     inkscape:window-y="-8"
     inkscape:window-maximized="1"
     showguides="false" />
  <metadata
     id="metadata5">
    <rdf:RDF>
      <cc:Work
         rdf:about="">
        <dc:format>image/svg+xml</dc:format>
        <dc:type
           rdf:resource="http://purl.org/dc/dcmitype/StillImage" />
        <dc:title></dc:title>
        <cc:license
           rdf:resource="http://creativecommons.org/licenses/by-nc-sa/4.0/" />
      </cc:Work>
      <cc:License
         rdf:about="http://creativecommons.org/licenses/by-nc-sa/4.0/">
        <cc:permits
           rdf:resource="http://creativecommons.org/ns#Reproduction" />
        <cc:permits
           rdf:resource="http://creativecommons.org/ns#Distribution" />
        <cc:requires
           rdf:resource="http://creativecommons.org/ns#Notice" />
        <cc:requires
           rdf:resource="http://creativecommons.org/ns#Attribution" />
        <cc:prohibits
           rdf:resource="http://creativecommons.org/ns#CommercialUse" />
        <cc:permits
           rdf:resource="http://creativecommons.org/ns#DerivativeWorks" />
        <cc:requires
           rdf:resource="http://creativecommons.org/ns#ShareAlike" />
      </cc:License>
    </rdf:RDF>
  </metadata>
  <g
     inkscape:label="Layer 1"
     inkscape:groupmode="layer"
     id="layer1"
     transform="translate(0,-270.54167)">
    <g
       id="g1002"
       transform="matrix(0.87926089,0,0,0.87926089,1.5972778,34.262238)" />
    <g
       id="g1166"
       transform="translate(-28.063145,0.06666273)">
      <path
         id="rect979"
         transform="matrix(0.26458333,0,0,0.26458333,0,270.54167)"
         d="m 125.91211,23.966797 v 51.5625 h 60.30664 v -51.5625 z m 4.17383,3.568359 h 51.96094 v 44.425782 h -51.96094 z"
         style="opacity:1;fill:#fb7c14;fill-opacity:1;stroke:none;stroke-width:0.99999994;paint-order:markers fill stroke"
         inkscape:connector-curvature="0" />
      <path
         inkscape:connector-curvature="0"
         id="path1094"
         d="m 40.121348,278.70763 c 0,0 -1.796248,1.59135 -0.975568,2.83892 l 0.26064,0.0355 a 0.80065979,0.81935341 0 0 1 0.274149,-0.0501 0.80065979,0.81935341 0 0 1 0.461044,0.14982 l 0.201532,0.0276 c 1.042481,-1.121 -0.221797,-3.00171 -0.221797,-3.00171 z m 0.221797,3.00171 0.06361,0.30022 a 0.80065979,0.81935341 0 0 1 0.07431,0.34135 0.80065979,0.81935341 0 0 1 -5.62e-4,0.007 l 0.105263,0.49455 c 1.445129,0.57106 2.85915,-1.20709 2.85915,-1.20709 0,0 -2.157305,-1.09859 -3.101773,0.0647 z m 0.242623,1.14231 -1.040865,0.47486 c -5.79e-4,1.50543 2.278761,2.26718 2.278761,2.26718 0,0 0.236986,-2.3405 -1.237896,-2.74204 z m -1.040865,0.47486 -0.937852,-0.73621 c -1.493723,0.4398 -1.420849,2.6795 -1.420849,2.6795 0,0 2.391728,-0.46642 2.358701,-1.94329 z m -0.937852,-0.73621 0.538729,-1.04375 c -0.774111,-1.30751 -3.02465,-0.74522 -3.02465,-0.74522 0,0 0.998606,2.14536 2.485921,1.78897 z m 0.539856,-1.03812 c -0.0013,7.6e-4 -0.121361,0.23512 -0.266831,0.52047 l -0.26458,0.51878 0.465546,0.36444 0.46555,0.365 0.293287,-0.13463 c 0.161451,-0.0739 0.39308,-0.17951 0.514524,-0.23488 0.179257,-0.0817 0.220487,-0.10508 0.218418,-0.12393 -0.0037,-0.0338 -0.05121,-0.22868 -0.09401,-0.4264 a 0.80065979,0.81935341 0 0 1 -0.798242,0.76944 0.80065979,0.81935341 0 0 1 -0.801058,-0.81956 0.80065979,0.81935341 0 0 1 0.516213,-0.76549 c -0.09411,-0.0127 -0.248067,-0.0337 -0.248817,-0.0333 z m 1.000897,0.13463 a 0.80065979,0.81935341 0 0 1 0.232493,0.26867 c -0.01793,-0.0758 -0.05051,-0.23798 -0.05291,-0.23938 -0.0077,-0.004 -0.06624,-0.0149 -0.129475,-0.0226 -0.0054,-6.7e-4 -0.04183,-0.005 -0.0501,-0.007 z"
         style="opacity:1;fill:#fb7c14;fill-opacity:1;stroke:#fb7c14;stroke-width:0.26458332;stroke-miterlimit:4;stroke-dasharray:none;stroke-opacity:1;paint-order:markers fill stroke" />
      <path
         inkscape:connector-curvature="0"
         id="path1094-8"
         d="m 45.368169,283.81418 c 0,0 -1.333376,0.48052 -1.155147,1.34375 l 0.135324,0.0764 a 0.4729952,0.4835647 22.154421 0 1 0.161439,0.0324 0.4729952,0.4835647 22.154421 0 1 0.220393,0.18278 l 0.104612,0.0591 c 0.816937,-0.38714 0.533379,-1.69437 0.533379,-1.69437 z m -0.533379,1.69437 -0.03061,0.1785 a 0.4729952,0.4835647 22.154421 0 1 -0.03371,0.2034 0.4729952,0.4835647 22.154421 0 1 -0.0017,0.003 l -0.05015,0.29416 c 0.668675,0.62857 1.832998,-0.0378 1.832998,-0.0378 0,0 -0.944493,-1.07328 -1.716865,-0.64154 z m -0.116126,0.67933 -0.675026,0.0332 c -0.328884,0.82536 0.756114,1.74058 0.756114,1.74058 0,0 0.640918,-1.23166 -0.08109,-1.77377 z m -0.675026,0.0332 -0.354158,-0.60839 c -0.915974,-0.0849 -1.364794,1.15913 -1.364794,1.15913 0,0 1.414749,0.26629 1.718952,-0.55074 z m -0.354158,-0.60839 0.523542,-0.45474 c -0.139583,-0.88593 -1.497749,-1.06884 -1.497749,-1.06884 0,0 0.07995,1.39435 0.974207,1.52358 z m 0.52293,-0.45141 c -9.01e-4,1.3e-4 -0.117937,0.10243 -0.260072,0.22715 l -0.258468,0.22671 0.176023,0.30146 0.175902,0.30176 0.190384,-0.01 c 0.104759,-0.005 0.254963,-0.0126 0.333715,-0.0165 0.116247,-0.006 0.143971,-0.01 0.146949,-0.0203 0.0053,-0.0194 0.0218,-0.13657 0.04146,-0.25433 a 0.4729952,0.4835647 22.154421 0 1 -0.606131,0.24768 0.4729952,0.4835647 22.154421 0 1 -0.260871,-0.62425 0.4729952,0.4835647 22.154421 0 1 0.450449,-0.30708 c -0.0489,-0.0275 -0.128826,-0.0726 -0.129333,-0.0725 z m 0.520065,0.29229 a 0.4729952,0.4835647 22.154421 0 1 0.06899,0.19807 c 0.0067,-0.0455 0.02421,-0.14152 0.0232,-0.14281 -0.0033,-0.004 -0.03311,-0.0226 -0.06615,-0.0407 -0.0028,-10e-4 -0.02177,-0.0121 -0.02607,-0.0145 z"
         style="opacity:1;fill:#fb7c14;fill-opacity:1;stroke:#fb7c14;stroke-width:0.26458332;stroke-miterlimit:4;stroke-dasharray:none;stroke-opacity:1;paint-order:markers fill stroke" />
      <path
         inkscape:connector-curvature="0"
         id="path1094-8-4"
         d="m 38.850547,285.8382 c 0,0 -0.300286,0.94455 0.246931,1.21522 l 0.09891,-0.0423 a 0.33781819,0.32748575 70.909566 0 1 0.08588,-0.0756 0.33781819,0.32748575 70.909566 0 1 0.192992,-0.0439 l 0.07648,-0.0327 c 0.133279,-0.6184 -0.701166,-1.02071 -0.701166,-1.02071 z m 0.701165,1.02072 0.08467,0.0933 a 0.33781819,0.32748575 70.909566 0 1 0.09697,0.10573 0.33781819,0.32748575 70.909566 0 1 8.98e-4,0.002 l 0.139653,0.15368 c 0.626006,-0.10154 0.7533,-1.03195 0.7533,-1.03195 0,0 -0.985608,0.0641 -1.075686,0.67686 z m 0.322384,0.35508 -0.266872,0.38829 c 0.31239,0.53548 1.270906,0.3259 1.270906,0.3259 0,0 -0.402776,-0.88228 -1.004029,-0.71418 z m -0.266872,0.38829 -0.482171,-0.0641 c -0.433179,0.47126 0.05748,1.25238 0.05748,1.25238 0,0 0.742956,-0.67003 0.424699,-1.18827 z m -0.482171,-0.0641 -0.02756,-0.48474 c -0.54331,-0.3018 -1.216787,0.37256 -1.216787,0.37256 0,0 0.796104,0.55243 1.24435,0.11218 z m -0.026,-0.48298 c -3.1e-4,5.6e-4 0.0062,0.1092 0.01438,0.24133 l 0.01482,0.24026 0.239144,0.0314 0.239257,0.0317 0.07492,-0.10979 c 0.0415,-0.0602 0.100767,-0.14668 0.131887,-0.19199 0.0458,-0.067 0.05533,-0.0841 0.05095,-0.0901 -0.0084,-0.0113 -0.06546,-0.0705 -0.121546,-0.13182 a 0.33781819,0.32748575 70.909566 0 1 -0.120517,0.44189 0.33781819,0.32748575 70.909566 0 1 -0.451452,-0.1226 0.33781819,0.32748575 70.909566 0 1 0.02231,-0.38104 c -0.03568,0.0153 -0.09409,0.0403 -0.09425,0.0406 z m 0.379399,-0.1631 a 0.33781819,0.32748575 70.909566 0 1 0.137423,0.0466 c -0.02205,-0.0232 -0.06715,-0.074 -0.06829,-0.074 -0.0036,1.2e-4 -0.02633,0.009 -0.05019,0.0193 -0.0017,0.001 -0.01581,0.007 -0.01893,0.008 z"
         style="opacity:1;fill:#fb7c14;fill-opacity:1;stroke:#fb7c14;stroke-width:0.26458332;stroke-miterlimit:4;stroke-dasharray:none;stroke-opacity:1;paint-order:markers fill stroke" />
    </g>
  </g>
</svg>
