<?xml version="1.0" encoding="UTF-8" standalone="no"?>
<!-- Created with Inkscape (http://www.inkscape.org/) -->

<svg
   xmlns:dc="http://purl.org/dc/elements/1.1/"
   xmlns:cc="http://creativecommons.org/ns#"
   xmlns:rdf="http://www.w3.org/1999/02/22-rdf-syntax-ns#"
   xmlns:svg="http://www.w3.org/2000/svg"
   xmlns="http://www.w3.org/2000/svg"
   xmlns:sodipodi="http://sodipodi.sourceforge.net/DTD/sodipodi-0.dtd"
   xmlns:inkscape="http://www.inkscape.org/namespaces/inkscape"
   width="200"
   height="200"
   viewBox="0 0 52.916666 52.916666"
   version="1.1"
   id="svg8"
   inkscape:version="0.92.3 (2405546, 2018-03-11)"
   sodipodi:docname="logoHome.svg">
  <defs
     id="defs2">
    <linearGradient
       id="linearGradient38"
       spreadMethod="pad"
       gradientTransform="matrix(0,-43.035683,-43.035683,0,185.25,357.08597)"
       gradientUnits="userSpaceOnUse"
       y2="0"
       x2="1"
       y1="0"
       x1="0">
      <stop
         id="stop32"
         offset="0"
         style="stop-opacity:1;stop-color:#39b54a" />
      <stop
         id="stop34"
         offset="0.60263059"
         style="stop-opacity:1;stop-color:#39b54a" />
      <stop
         id="stop36"
         offset="1"
         style="stop-opacity:1;stop-color:#006837" />
    </linearGradient>
    <linearGradient
       id="linearGradient66"
       spreadMethod="pad"
       gradientTransform="matrix(132.71893,0,0,-132.71893,216.94989,311.58597)"
       gradientUnits="userSpaceOnUse"
       y2="0"
       x2="1"
       y1="0"
       x1="0">
      <stop
         id="stop54"
         offset="0"
         style="stop-opacity:1;stop-color:#f7a90b" />
      <stop
         id="stop56"
         offset="0.302497"
         style="stop-opacity:1;stop-color:#f7a90b" />
      <stop
         id="stop58"
         offset="0.35104812"
         style="stop-opacity:1;stop-color:#f7a90b" />
      <stop
         id="stop60"
         offset="0.54415"
         style="stop-opacity:1;stop-color:#f7a90b" />
      <stop
         id="stop62"
         offset="0.62259387"
         style="stop-opacity:1;stop-color:#f7a90b" />
      <stop
         id="stop64"
         offset="1"
         style="stop-opacity:1;stop-color:#fd5b1a" />
    </linearGradient>
    <linearGradient
       id="linearGradient94"
       spreadMethod="pad"
       gradientTransform="matrix(-121.38604,0,0,-121.38604,142.88344,311.58597)"
       gradientUnits="userSpaceOnUse"
       y2="0"
       x2="1"
       y1="0"
       x1="0">
      <stop
         id="stop82"
         offset="0"
         style="stop-opacity:1;stop-color:#f7a90b" />
      <stop
         id="stop84"
         offset="0.302497"
         style="stop-opacity:1;stop-color:#f7a90b" />
      <stop
         id="stop86"
         offset="0.35104812"
         style="stop-opacity:1;stop-color:#f7a90b" />
      <stop
         id="stop88"
         offset="0.54415"
         style="stop-opacity:1;stop-color:#f7a90b" />
      <stop
         id="stop90"
         offset="0.62259387"
         style="stop-opacity:1;stop-color:#f7a90b" />
      <stop
         id="stop92"
         offset="1"
         style="stop-opacity:1;stop-color:#fd5b1a" />
    </linearGradient>
    <linearGradient
       id="linearGradient122"
       spreadMethod="pad"
       gradientTransform="matrix(0,-263.53842,-263.53842,0,159.75893,282.08597)"
       gradientUnits="userSpaceOnUse"
       y2="0"
       x2="1"
       y1="0"
       x1="0">
      <stop
         id="stop110"
         offset="0"
         style="stop-opacity:1;stop-color:#706e7b" />
      <stop
         id="stop112"
         offset="0.302497"
         style="stop-opacity:1;stop-color:#706e7b" />
      <stop
         id="stop114"
         offset="0.35104812"
         style="stop-opacity:1;stop-color:#706e7b" />
      <stop
         id="stop116"
         offset="0.54415"
         style="stop-opacity:1;stop-color:#706e7b" />
      <stop
         id="stop118"
         offset="0.62259387"
         style="stop-opacity:1;stop-color:#706e7b" />
      <stop
         id="stop120"
         offset="1"
         style="stop-opacity:1;stop-color:#4d4a5b" />
    </linearGradient>
    <linearGradient
       id="linearGradient150"
       spreadMethod="pad"
       gradientTransform="matrix(0,-283.63709,-283.63709,0,40.683071,291.58597)"
       gradientUnits="userSpaceOnUse"
       y2="0"
       x2="1"
       y1="0"
       x1="0">
      <stop
         id="stop138"
         offset="0"
         style="stop-opacity:1;stop-color:#706e7b" />
      <stop
         id="stop140"
         offset="0.302497"
         style="stop-opacity:1;stop-color:#706e7b" />
      <stop
         id="stop142"
         offset="0.35104812"
         style="stop-opacity:1;stop-color:#706e7b" />
      <stop
         id="stop144"
         offset="0.54415"
         style="stop-opacity:1;stop-color:#706e7b" />
      <stop
         id="stop146"
         offset="0.62259387"
         style="stop-opacity:1;stop-color:#706e7b" />
      <stop
         id="stop148"
         offset="1"
         style="stop-opacity:1;stop-color:#4d4a5b" />
    </linearGradient>
    <linearGradient
       id="linearGradient178"
       spreadMethod="pad"
       gradientTransform="matrix(0,-283.63709,-283.63709,0,88.872047,291.58597)"
       gradientUnits="userSpaceOnUse"
       y2="0"
       x2="1"
       y1="0"
       x1="0">
      <stop
         id="stop166"
         offset="0"
         style="stop-opacity:1;stop-color:#706e7b" />
      <stop
         id="stop168"
         offset="0.302497"
         style="stop-opacity:1;stop-color:#706e7b" />
      <stop
         id="stop170"
         offset="0.35104812"
         style="stop-opacity:1;stop-color:#706e7b" />
      <stop
         id="stop172"
         offset="0.54415"
         style="stop-opacity:1;stop-color:#706e7b" />
      <stop
         id="stop174"
         offset="0.62259387"
         style="stop-opacity:1;stop-color:#706e7b" />
      <stop
         id="stop176"
         offset="1"
         style="stop-opacity:1;stop-color:#4d4a5b" />
    </linearGradient>
    <linearGradient
       id="linearGradient206"
       spreadMethod="pad"
       gradientTransform="matrix(0,-283.63709,-283.63709,0,137.06102,291.58597)"
       gradientUnits="userSpaceOnUse"
       y2="0"
       x2="1"
       y1="0"
       x1="0">
      <stop
         id="stop194"
         offset="0"
         style="stop-opacity:1;stop-color:#706e7b" />
      <stop
         id="stop196"
         offset="0.302497"
         style="stop-opacity:1;stop-color:#706e7b" />
      <stop
         id="stop198"
         offset="0.35104812"
         style="stop-opacity:1;stop-color:#706e7b" />
      <stop
         id="stop200"
         offset="0.54415"
         style="stop-opacity:1;stop-color:#706e7b" />
      <stop
         id="stop202"
         offset="0.62259387"
         style="stop-opacity:1;stop-color:#706e7b" />
      <stop
         id="stop204"
         offset="1"
         style="stop-opacity:1;stop-color:#4d4a5b" />
    </linearGradient>
    <linearGradient
       id="linearGradient234"
       spreadMethod="pad"
       gradientTransform="matrix(0,-283.63709,-283.63709,0,185.25,291.58597)"
       gradientUnits="userSpaceOnUse"
       y2="0"
       x2="1"
       y1="0"
       x1="0">
      <stop
         id="stop222"
         offset="0"
         style="stop-opacity:1;stop-color:#706e7b" />
      <stop
         id="stop224"
         offset="0.302497"
         style="stop-opacity:1;stop-color:#706e7b" />
      <stop
         id="stop226"
         offset="0.35104812"
         style="stop-opacity:1;stop-color:#706e7b" />
      <stop
         id="stop228"
         offset="0.54415"
         style="stop-opacity:1;stop-color:#706e7b" />
      <stop
         id="stop230"
         offset="0.62259387"
         style="stop-opacity:1;stop-color:#706e7b" />
      <stop
         id="stop232"
         offset="1"
         style="stop-opacity:1;stop-color:#4d4a5b" />
    </linearGradient>
  </defs>
  <sodipodi:namedview
     id="base"
     pagecolor="#ffffff"
     bordercolor="#666666"
     borderopacity="1.0"
     inkscape:pageopacity="0.0"
     inkscape:pageshadow="2"
     inkscape:zoom="3.959798"
     inkscape:cx="88.222698"
     inkscape:cy="101.36249"
     inkscape:document-units="mm"
     inkscape:current-layer="layer1"
     showgrid="false"
     inkscape:window-width="1920"
     inkscape:window-height="1017"
     inkscape:window-x="-8"
     inkscape:window-y="-8"
     inkscape:window-maximized="1"
     inkscape:pagecheckerboard="false"
     units="px" />
  <metadata
     id="metadata5">
    <rdf:RDF>
      <cc:Work
         rdf:about="">
        <dc:format>image/svg+xml</dc:format>
        <dc:type
           rdf:resource="http://purl.org/dc/dcmitype/StillImage" />
        <dc:title></dc:title>
      </cc:Work>
    </rdf:RDF>
  </metadata>
  <g
     inkscape:label="Layer 1"
     inkscape:groupmode="layer"
     id="layer1"
     transform="translate(0,-244.08334)">
    <g
       transform="matrix(0.15481973,0,0,-0.15481973,-2.2220201,299.95756)"
       inkscape:label="touch"
       id="g18">
      <g
         id="g20">
        <g
           id="g22">
          <g
             id="g28">
            <g
               id="g30">
              <path
                 inkscape:connector-curvature="0"
                 id="path40"
                 style="fill:url(#linearGradient38);stroke:none"
                 d="m 163.991,337.922 c 0,-11.742 9.518,-21.26 21.26,-21.26 v 0 c 11.74,0 21.258,9.518 21.258,21.26 v 0 c 0,11.741 -9.518,21.26 -21.258,21.26 v 0 c -11.742,0 -21.26,-9.519 -21.26,-21.26" />
            </g>
          </g>
        </g>
      </g>
      <g
         id="g42">
        <g
           id="g44">
          <g
             id="g50">
            <g
               id="g52">
              <path
                 inkscape:connector-curvature="0"
                 id="path68"
                 style="fill:url(#linearGradient66);stroke:none"
                 d="m 216.95,345.533 c 47.908,-3.816 83.385,-17.566 83.385,-33.947 v 0 c 0,-16.381 -35.477,-30.132 -83.385,-33.947 v 0 c 8.338,-0.687 17.064,-1.053 26.052,-1.053 v 0 c 58.91,0 106.667,15.67 106.667,35 v 0 c 0,19.33 -47.757,35 -106.667,35 v 0 c -8.988,0 -17.714,-0.367 -26.052,-1.053" />
            </g>
          </g>
        </g>
      </g>
      <g
         id="g70">
        <g
           id="g72">
          <g
             id="g78">
            <g
               id="g80">
              <path
                 inkscape:connector-curvature="0"
                 id="path96"
                 style="fill:url(#linearGradient94);stroke:none"
                 d="m 20.831,311.586 c 0,-19.33 47.756,-35 106.667,-35 v 0 c 8.988,0 17.713,0.366 26.052,1.053 v 0 c -47.908,3.815 -83.385,17.566 -83.385,33.947 v 0 c 0,16.381 35.477,30.131 83.385,33.947 v 0 c -8.339,0.686 -17.064,1.053 -26.052,1.053 v 0 c -58.911,0 -106.667,-15.67 -106.667,-35" />
            </g>
          </g>
        </g>
      </g>
      <g
         id="g98">
        <g
           id="g100">
          <g
             id="g106">
            <g
               id="g108">
              <path
                 inkscape:connector-curvature="0"
                 id="path124"
                 style="fill:url(#linearGradient122);stroke:none"
                 d="m 269.09,190.379 c -20.372,-8.88 -37.074,-24.665 -51.094,-41.59 v 0 c -14.83,-17.902 -29.643,-36.895 -40.984,-57.227 v 0 c -2.747,-4.925 -5.414,-9.911 -8.699,-14.505 v 0 c -0.098,-0.11 -0.206,-0.23 -0.323,-0.362 v 0 c -0.946,-1.054 -1.897,-2.088 -2.915,-3.073 v 0 c -0.89,-0.862 -1.809,-1.691 -2.759,-2.486 v 0 c 1.667,1.4 -2.083,-1.402 -2.255,-1.514 v 0 c -2.376,-1.548 -4.855,-2.942 -7.38,-4.232 v 0 c -0.995,-0.508 -2.009,-0.974 -3.01,-1.471 v 0 c -0.322,-0.16 -0.592,-0.295 -0.815,-0.409 v 0 c -0.079,-0.028 -0.168,-0.06 -0.268,-0.097 v 0 c -5.526,-2.03 -11.046,-3.841 -16.821,-5.043 v 0 c -1.093,-0.227 -2.196,-0.409 -3.29,-0.63 v 0 c -0.372,-0.075 -0.68,-0.138 -0.931,-0.192 v 0 c -0.028,-0.002 -0.057,-0.005 -0.086,-0.008 v 0 c -2.503,-0.256 -5.001,-0.5 -7.514,-0.613 v 0 c -2.79,-0.126 -5.586,-0.141 -8.376,-0.044 v 0 c -1.116,0.039 -2.233,0.095 -3.346,0.171 v 0 c -0.401,0.027 -2.907,0.273 -4.073,0.373 v 0 c -0.285,0.047 -0.653,0.106 -1.028,0.164 v 0 c -0.862,0.133 -1.759,0.268 -1.746,0.264 v 0 c -1.097,0.201 -2.192,0.418 -3.281,0.655 v 0 c -2.727,0.591 -5.43,1.296 -8.099,2.113 v 0 c -2.468,0.757 -4.916,1.6 -7.314,2.559 v 0 c -0.196,0.098 -0.43,0.214 -0.705,0.351 v 0 c -1.457,0.726 -2.919,1.433 -4.34,2.229 v 0 c -1.419,0.794 -2.751,1.715 -4.15,2.536 v 0 c -0.394,0.231 -0.666,0.378 -0.847,0.464 v 0 c -0.153,0.159 -0.364,0.366 -0.648,0.635 v 0 c -0.786,0.743 -1.596,1.438 -2.363,2.204 v 0 c -0.52,0.521 -2.302,2.577 -2.045,2.146 v 0 c -1.537,2.18 -2.712,4.527 -3.973,6.872 v 0 c 0.868,-1.617 0.042,-0.239 -0.292,0.54 v 0 c -0.005,0.008 -0.009,0.017 -0.014,0.026 v 0 c 0.005,-0.009 0.009,-0.018 0.014,-0.026 v 0 c -0.033,0.078 -0.062,0.149 -0.083,0.212 v 0 c -0.529,1.542 -1.073,3.073 -1.524,4.641 v 0 c -0.799,2.775 -1.466,5.635 -1.901,8.502 v 0 c 0.058,-0.282 -0.144,1.604 -0.157,1.891 v 0 c -0.11,2.203 -0.303,4.396 -0.367,6.602 v 0 c -0.211,7.262 0.174,14.521 0.557,21.771 v 0 c 0.497,9.417 -8.634,18.419 -18,18 v 0 c -10.178,-0.456 -17.468,-7.912 -18,-18 v 0 C 22.389,97.207 23.388,67.021 44.174,46.146 v 0 C 62.567,27.673 92.057,20.31 117.434,20.847 v 0 c 25.959,0.549 54.95,9.155 73.707,27.909 v 0 c 9.501,9.501 14.873,21.801 21.864,33.042 v 0 c 6.754,10.86 14.58,21.064 22.298,31.249 v 0 c 0.61,0.805 1.223,1.61 1.837,2.414 v 0 c -2.046,-2.684 1.856,2.364 2.251,2.861 v 0 c 2.007,2.524 4.044,5.023 6.131,7.481 v 0 c 4.143,4.881 8.466,9.617 13.073,14.067 v 0 c 2.278,2.201 4.623,4.335 7.047,6.376 v 0 c 0.804,0.677 1.622,1.336 2.437,2.001 v 0 c -2.958,-2.414 1.393,0.992 2.019,1.431 v 0 c 5.397,3.786 11.119,6.982 17.162,9.616 v 0 c 8.664,3.776 11.297,17.121 6.457,24.627 v 0 c -3.803,5.899 -9.233,8.577 -15.138,8.578 v 0 c -3.088,0 -6.306,-0.733 -9.489,-2.12 M 168.314,77.059 c 0.45,0.614 1.823,2.045 0,0 m -104.994,4.1 c 0.005,-0.009 0.009,-0.017 0.013,-0.025 v 0 c -0.004,0.008 -0.008,0.016 -0.013,0.025 v 0 c 0,0 0,0 0,0 m 0.028,-0.052 c -0.005,0.009 -0.01,0.018 -0.015,0.027 v 0 c 0.005,-0.009 0.01,-0.018 0.015,-0.027 m 0.264,-0.488 c -0.075,0.14 -0.162,0.302 -0.264,0.488 v 0 c 0.089,-0.162 0.177,-0.325 0.264,-0.488" />
            </g>
          </g>
        </g>
      </g>
      <g
         id="g126">
        <g
           id="g128">
          <g
             id="g134">
            <g
               id="g136">
              <path
                 inkscape:connector-curvature="0"
                 id="path152"
                 style="fill:url(#linearGradient150);stroke:none"
                 d="m 25.093,199.411 v -28.322 c 0,0 0,-17.008 15.591,-17.008 v 0 c 15.589,0 15.589,17.008 15.589,17.008 v 0 28.322 c 0,0 0,17.008 -15.589,17.008 v 0 c -15.591,0 -15.591,-17.008 -15.591,-17.008" />
            </g>
          </g>
        </g>
      </g>
      <g
         id="g154">
        <g
           id="g156">
          <g
             id="g162">
            <g
               id="g164">
              <path
                 inkscape:connector-curvature="0"
                 id="path180"
                 style="fill:url(#linearGradient178);stroke:none"
                 d="m 73.282,210.75 v -39.661 c 0,0 0,-17.008 15.59,-17.008 v 0 c 15.591,0 15.591,17.008 15.591,17.008 v 0 39.661 c 0,0 0,17.008 -15.591,17.008 v 0 c -15.59,0 -15.59,-17.008 -15.59,-17.008" />
            </g>
          </g>
        </g>
      </g>
      <g
         id="g182">
        <g
           id="g184">
          <g
             id="g190">
            <g
               id="g192">
              <path
                 inkscape:connector-curvature="0"
                 id="path208"
                 style="fill:url(#linearGradient206);stroke:none"
                 d="m 121.47,222.089 v -51 c 0,0 0,-17.008 15.591,-17.008 v 0 c 15.591,0 15.591,17.008 15.591,17.008 v 0 51 c 0,0 0,17.008 -15.591,17.008 v 0 c -15.591,0 -15.591,-17.008 -15.591,-17.008" />
            </g>
          </g>
        </g>
      </g>
      <g
         id="g210">
        <g
           id="g212">
          <g
             id="g218">
            <g
               id="g220">
              <path
                 inkscape:connector-curvature="0"
                 id="path236"
                 style="fill:url(#linearGradient234);stroke:none"
                 d="M 169.659,290.74 V 171.089 c 0,0 0,-17.008 15.592,-17.008 v 0 c 15.59,0 15.59,17.008 15.59,17.008 v 0 119.651 c 0,0 0,17.007 -15.59,17.007 v 0 c -15.592,0 -15.592,-17.007 -15.592,-17.007" />
            </g>
          </g>
        </g>
      </g>
    </g>
  </g>
</svg>
